<svg xmlns="http://www.w3.org/2000/svg" width="70" height="60" viewBox="0 0 70 60">
  <g id="bars" transform="translate(0 -34.019)">
    <g id="Group_16" data-name="Group 16" transform="translate(48.292 34.019)">
      <g id="Group_15" data-name="Group 15" transform="translate(0 0)">
        <path id="Path_42" data-name="Path 42" d="M304.112,34.019a9.746,9.746,0,0,0,0,19.491,9.791,9.791,0,0,0,9.779-9.779A9.691,9.691,0,0,0,304.112,34.019Zm0,17.348a7.6,7.6,0,1,1,7.636-7.569A7.632,7.632,0,0,1,304.112,51.367Z" transform="translate(-294.4 -34.019)"/>
      </g>
    </g>
    <g id="Group_18" data-name="Group 18" transform="translate(54.856 37.435)">
      <g id="Group_17" data-name="Group 17">
        <path id="Path_43" data-name="Path 43" d="M339.829,62.256a1.75,1.75,0,0,0-.2-.536,1.678,1.678,0,0,0-.268-.469c-.134-.134-.2-.268-.335-.4a1.2,1.2,0,0,0-.469-.335,1.679,1.679,0,0,0-.469-.268c-.2-.067-.335-.2-.536-.268a4.616,4.616,0,0,1-.536-.2.508.508,0,0,1-.268-.134c-.067-.067-.2-.067-.268-.134s-.2-.067-.268-.134l-.2-.2a.348.348,0,0,1-.134-.268.4.4,0,0,1-.067-.268V58.3c0-.067.067-.2.067-.268.067-.067.067-.2.134-.268l.2-.2a.512.512,0,0,1,.335-.134.6.6,0,0,1,.335-.067h.4a.6.6,0,0,1,.335.067,2.9,2.9,0,0,1,.335.067c.067,0,.2.067.268.067.134,0,.2.067.268.067l.335.134.067-.4.134-1.072v-.268l-.268-.067c-.067,0-.2-.067-.268-.067s-.134-.067-.268-.067a2.9,2.9,0,0,0-.335-.067c-.134,0-.2-.067-.335-.067h-.067V54.419h-1.608v1.34h-.067a2.379,2.379,0,0,0-.6.268,1.2,1.2,0,0,0-.469.335,2.913,2.913,0,0,0-.4.469,1.346,1.346,0,0,0-.268.536l-.2.6a2.277,2.277,0,0,0-.067.67,1.474,1.474,0,0,0,.067.536,1.75,1.75,0,0,0,.2.536c.067.134.2.335.268.469.134.134.2.268.335.4a1.2,1.2,0,0,0,.469.335,1.679,1.679,0,0,0,.469.268,3.979,3.979,0,0,1,.536.268,4.616,4.616,0,0,1,.536.2.508.508,0,0,1,.268.134c.067.067.2.067.268.134s.134.134.2.134l.2.2c.067.067.067.134.134.268a2.9,2.9,0,0,1,.067.335v.335a.508.508,0,0,1-.134.268l-.2.2a.925.925,0,0,1-.268.2c-.067.067-.2.067-.268.134a2.9,2.9,0,0,1-.335.067h-.871a2.9,2.9,0,0,1-.335-.067.952.952,0,0,1-.4-.134c-.134-.067-.268-.067-.4-.134-.067,0-.134-.067-.2-.067s-.134-.067-.2-.067l-.4-.2-.067.469-.134,1.206v.2l.2.067a.9.9,0,0,1,.6.067,1.241,1.241,0,0,0,.469.134c.134.067.335.067.536.134a1.475,1.475,0,0,0,.536.067h.134v1.34h1.607V65.672h.067a2.379,2.379,0,0,0,.6-.268,2.35,2.35,0,0,0,.536-.335,2.917,2.917,0,0,0,.4-.469,3.739,3.739,0,0,0,.335-.536l.2-.6a2.066,2.066,0,0,0,.067-.67A1.474,1.474,0,0,0,339.829,62.256Z" transform="translate(-333.6 -54.419)"/>
      </g>
    </g>
    <g id="Group_20" data-name="Group 20" transform="translate(11.056 54.553)">
      <g id="Group_19" data-name="Group 19">
        <path id="Path_44" data-name="Path 44" d="M111.341,155.979a1.141,1.141,0,0,0-1.541-.2l-10.851,8.64-14-5.827a1.069,1.069,0,0,0-1,.134l-15,10.717a1.07,1.07,0,0,0-.268,1.474.976.976,0,0,0,.871.469,1.08,1.08,0,0,0,.6-.2L84.683,160.8l14.066,5.827a1.205,1.205,0,0,0,1.072-.134l11.32-8.975A1.141,1.141,0,0,0,111.341,155.979Z" transform="translate(-68.489 -155.569)"/>
      </g>
    </g>
    <g id="Group_22" data-name="Group 22" transform="translate(0 59.792)">
      <g id="Group_21" data-name="Group 21">
        <path id="Path_45" data-name="Path 45" d="M69,217.7H64.117V186.691a1.051,1.051,0,0,0-1.057-1.072H53.354a1.051,1.051,0,0,0-1.057,1.072V217.7H48.731V197.407a1.051,1.051,0,0,0-1.057-1.072H37.9a1.051,1.051,0,0,0-1.057,1.072V217.7H33.28V195.8a1.051,1.051,0,0,0-1.057-1.072H22.517A1.051,1.051,0,0,0,21.46,195.8v21.9H17.895V202.1a1.051,1.051,0,0,0-1.057-1.072H7.065A1.051,1.051,0,0,0,6.009,202.1V217.7H1.057a1.072,1.072,0,0,0,0,2.143H68.937a1.051,1.051,0,0,0,1.057-1.072A.962.962,0,0,0,69,217.7Zm-53.288,0H8.122V203.168h7.594Zm15.451,0H23.573V196.872h7.594Zm15.385,0H38.959V198.479h7.594ZM62,217.7H54.41v-29.94H62Z" transform="translate(0 -185.619)"/>
      </g>
    </g>
  </g>
</svg>
