<svg id="conversion" xmlns="http://www.w3.org/2000/svg" width="70" height="70" viewBox="0 0 70 70">
  <g id="Group_24" data-name="Group 24">
    <g id="Group_23" data-name="Group 23">
      <path id="Path_46" data-name="Path 46" d="M63,0c-3.86,0-7,2.724-7,6.073,0,3,2.528,5.5,5.833,5.982v2.115h-14a1.1,1.1,0,0,0-1.167,1.012V18.22h-10.5V12.055C39.472,11.571,42,9.077,42,6.073,42,2.724,38.86,0,35,0s-7,2.724-7,6.073c0,3,2.528,5.5,5.833,5.982V18.22h-10.5V15.183a1.1,1.1,0,0,0-1.167-1.012h-14V12.055C11.472,11.571,14,9.077,14,6.073,14,2.724,10.86,0,7,0S0,2.724,0,6.073c0,3,2.528,5.5,5.833,5.982v3.128A1.1,1.1,0,0,0,7,16.2H21V18.22H15.167A1.1,1.1,0,0,0,14,19.232V25.3a1,1,0,0,0,.59.881l15.743,7.76v6.542a1,1,0,0,0,.616.893,1.323,1.323,0,0,0,1.2-.051l7-4.049a.985.985,0,0,0,.519-.842V33.946l15.743-7.76A1,1,0,0,0,56,25.3V19.232a1.1,1.1,0,0,0-1.167-1.012H49V16.2H63a1.1,1.1,0,0,0,1.167-1.012V12.055C67.472,11.571,70,9.077,70,6.073,70,2.724,66.86,0,63,0ZM2.333,6.073C2.333,3.84,4.426,2.024,7,2.024s4.667,1.816,4.667,4.049S9.574,10.122,7,10.122,2.333,8.306,2.333,6.073Zm28,0c0-2.233,2.093-4.049,4.667-4.049s4.667,1.816,4.667,4.049S37.574,10.122,35,10.122,30.333,8.306,30.333,6.073ZM53.667,20.244v4.472l-15.743,7.76a1,1,0,0,0-.59.881V35.9l-4.667,2.7v-5.24a1,1,0,0,0-.59-.881L16.333,24.716V20.244ZM63,10.122c-2.574,0-4.667-1.816-4.667-4.049S60.426,2.024,63,2.024s4.667,1.816,4.667,4.049S65.574,10.122,63,10.122Z"/>
    </g>
  </g>
  <g id="Group_26" data-name="Group 26" transform="translate(21.5 43)">
    <g id="Group_25" data-name="Group 25">
      <path id="Path_47" data-name="Path 47" d="M181.5,336A13.5,13.5,0,1,0,195,349.5,13.516,13.516,0,0,0,181.5,336ZM180,354a1.5,1.5,0,0,1-1.5-1.5h-3A4.505,4.505,0,0,0,180,357v2.88a10.486,10.486,0,0,1,0-20.76V342a4.5,4.5,0,1,0,0,9h3a1.5,1.5,0,0,1,0,3Zm3,5.88V357a4.5,4.5,0,1,0,0-9h-3a1.5,1.5,0,1,1,0-3h3a1.5,1.5,0,0,1,1.5,1.5h3A4.505,4.505,0,0,0,183,342v-2.88a10.486,10.486,0,0,1,0,20.76Z" transform="translate(-168 -336)"/>
    </g>
  </g>
</svg>
