<svg xmlns="http://www.w3.org/2000/svg" width="70" height="70" viewBox="0 0 70 70">
  <g id="interactive" transform="translate(-3.515)">
    <path id="Path_36" data-name="Path 36" d="M126.415,37.43h-10.98a1.052,1.052,0,1,0,0,2.1h10.98a1.052,1.052,0,1,0,0-2.1Z" transform="translate(-95.539 -32.181)"/>
    <path id="Path_37" data-name="Path 37" d="M53.973,39.533h3.2a1.052,1.052,0,0,0,0-2.1h-3.2a1.052,1.052,0,0,0,0,2.1Z" transform="translate(-42.478 -32.181)"/>
    <path id="Path_38" data-name="Path 38" d="M53.973,75.487h10.98a1.052,1.052,0,0,0,0-2.1H53.973a1.052,1.052,0,1,0,0,2.1Z" transform="translate(-42.478 -63.094)"/>
    <path id="Path_39" data-name="Path 39" d="M174.116,73.384h-3.2a1.052,1.052,0,0,0,0,2.1h3.2a1.052,1.052,0,0,0,0-2.1Z" transform="translate(-143.311 -63.094)"/>
    <path id="Path_40" data-name="Path 40" d="M67.385,22.266a4.927,4.927,0,0,0-4.823,3.845H56.883a10.51,10.51,0,0,0-2.376-5.671l7.14-7.049a7.039,7.039,0,0,0,9.822-.047,6.824,6.824,0,0,0,0-9.745,7.048,7.048,0,0,0-9.873,0,6.826,6.826,0,0,0-1.213,8.141l-.021.018-7.328,7.234a10.756,10.756,0,0,0-9.541-2.037,10.656,10.656,0,0,0-4.016,2.037l-3.293-3.251a3.4,3.4,0,0,0,.569-1.885V3.458A3.485,3.485,0,0,0,33.25,0H9.655a3.485,3.485,0,0,0-3.5,3.458v10.4a3.485,3.485,0,0,0,3.5,3.458h8.194a1.025,1.025,0,1,0,0-2.051H9.655A1.417,1.417,0,0,1,8.23,13.855V3.458A1.417,1.417,0,0,1,9.655,2.051h23.6a1.417,1.417,0,0,1,1.424,1.407v10.4a1.417,1.417,0,0,1-1.424,1.407h-10.6a1.025,1.025,0,1,0,0,2.051h10.6a3.524,3.524,0,0,0,1.327-.258l3.434,3.39a10.445,10.445,0,0,0-2.247,8.639l-12.458,7.1,0,0A11.125,11.125,0,0,0,17.6,32.6,11.245,11.245,0,0,0,9.111,33.7a11.013,11.013,0,0,0,2.7,20.247,11.39,11.39,0,0,0,2.915.381,11.244,11.244,0,0,0,5.582-1.487,10.982,10.982,0,0,0,4.175-14.956L36.365,31.11a10.536,10.536,0,0,0,6.087,5.872v9.987a8.736,8.736,0,0,1-.066,1.169c-2.116-3.021-4.063-5.254-7.807-4.612a3.2,3.2,0,0,0-2.549,1.916,3.282,3.282,0,0,0,.63,3.23L41.4,61.326a9.4,9.4,0,0,1,1.954,6.3A2.4,2.4,0,0,0,45.763,70h16.38a2.4,2.4,0,0,0,2.411-2.375V63.442a5.365,5.365,0,0,1,.767-2.995,10.815,10.815,0,0,0,1.318-4.36,1.035,1.035,0,0,0,.006-.11V52.466a1.04,1.04,0,0,0-2.079,0v3.455a8.789,8.789,0,0,1-1.094,3.589,7.347,7.347,0,0,0-1,3.931v4.182a.333.333,0,0,1-.332.325H45.763a.333.333,0,0,1-.332-.325,11.376,11.376,0,0,0-2.314-7.452L34.361,47.493c-.012-.018-.025-.035-.038-.052a1.345,1.345,0,0,1-.353-1.262,1.191,1.191,0,0,1,.967-.633c2.4-.412,3.686.811,5.834,3.9.015.021.03.042.046.062.784.963,1.569,1.317,2.332,1.052.955-.331,1.381-1.438,1.381-3.588V27.376a1.73,1.73,0,1,1,3.45,0V45.06a1.04,1.04,0,0,0,2.079,0V36.855a1.681,1.681,0,0,1,1.725-1.861,1.9,1.9,0,0,1,.583.091q.047.02.095.035a1.7,1.7,0,0,1,1.047,1.735V46.43a1.04,1.04,0,0,0,2.079,0V39.179a1.73,1.73,0,1,1,3.45,0V47.8a1.04,1.04,0,0,0,2.079,0V41.5a1.681,1.681,0,0,1,1.722-1.863,1.754,1.754,0,0,1,1.187.443,1.849,1.849,0,0,1,.537,1.419v6.227a1.04,1.04,0,0,0,2.079,0V41.5a3.734,3.734,0,0,0-3.8-3.913,3.952,3.952,0,0,0-1.859.462,3.7,3.7,0,0,0-3.668-2.784,3.958,3.958,0,0,0-1.861.462,3.621,3.621,0,0,0-1.048-1.784,10.449,10.449,0,0,0,2.48-5.783h5.677a4.925,4.925,0,1,0,4.823-5.9ZM63.066,5.048h0a4.949,4.949,0,0,1,6.932,0,4.793,4.793,0,0,1,0,6.845,4.941,4.941,0,0,1-6.931,0,4.793,4.793,0,0,1,0-6.844Zm-43.8,46.018h0a9.157,9.157,0,0,1-6.918.9,8.97,8.97,0,0,1-2.2-16.491,9.149,9.149,0,0,1,4.543-1.21,9.276,9.276,0,0,1,2.372.31A9.038,9.038,0,0,1,22.6,38.771a8.944,8.944,0,0,1-3.337,12.295ZM54.855,27.152A8.416,8.416,0,0,1,52.471,33a3.984,3.984,0,0,0-2.41.333V27.376a3.806,3.806,0,1,0-7.609,0v7.373a8.453,8.453,0,0,1,1.581-15.814,8.63,8.63,0,0,1,6.518.845,8.474,8.474,0,0,1,4.305,7.331c0,.008,0,.017,0,.025s0,.011,0,.016Zm12.53,2.8a2.818,2.818,0,1,1,2.851-2.816A2.839,2.839,0,0,1,67.385,29.951Z" transform="translate(0 0)"/>
    <path id="Path_41" data-name="Path 41" d="M52.991,278.66a5.33,5.33,0,0,0-2.757,10.3,5.3,5.3,0,0,0,4.043-.533h0a5.332,5.332,0,0,0-1.287-9.763Zm.233,7.942A3.229,3.229,0,1,1,54.4,282.2,3.2,3.2,0,0,1,53.225,286.6Z" transform="translate(-36.774 -240.573)"/>
  </g>
</svg>
