<?xml version="1.0" encoding="utf-8"?>
<!-- Generator: Adobe Illustrator 24.3.0, SVG Export Plug-In . SVG Version: 6.00 Build 0)  -->
<svg version="1.1" id="Layer_1" xmlns="http://www.w3.org/2000/svg" xmlns:xlink="http://www.w3.org/1999/xlink" x="0px" y="0px"
	 viewBox="0 0 71.9 26.6" style="enable-background:new 0 0 71.9 26.6;" xml:space="preserve">
<style type="text/css">
	.st0{fill:#010202;}
</style>
<path id="Path_70" d="M32.3,21.8h-3.2v-6.4h-6.3v6.4h-3.2V6.9h3.2v6h6.3v-6h3.2L32.3,21.8z M41.7,21.8c-0.2-0.3-0.3-0.6-0.3-1
	c-0.7,0.8-1.8,1.2-2.9,1.2c-1,0-2-0.3-2.8-0.9c-0.7-0.6-1.1-1.5-1.1-2.4c-0.1-1.1,0.5-2.1,1.4-2.7c1.2-0.7,2.6-1,4-1h1.4v-0.6
	c0-0.4-0.1-0.9-0.4-1.2c-0.3-0.3-0.8-0.5-1.3-0.5c-0.4,0-0.9,0.1-1.2,0.4c-0.3,0.2-0.5,0.6-0.4,1h-3.1c0-0.6,0.2-1.3,0.6-1.8
	c0.5-0.6,1.1-1,1.8-1.3c0.8-0.3,1.7-0.5,2.6-0.5c1.2-0.1,2.5,0.3,3.4,1c0.9,0.7,1.3,1.8,1.3,2.9v4.8c0,0.8,0.1,1.6,0.5,2.4v0.2H41.7
	z M39.1,19.8c0.4,0,0.9-0.1,1.3-0.3c0.4-0.2,0.7-0.4,0.9-0.8v-1.9h-1.2c-1.6,0-2.4,0.5-2.5,1.5l0,0.2c0,0.3,0.1,0.7,0.4,0.9
	C38.3,19.7,38.7,19.8,39.1,19.8z M50.1,21.8h-3.1V6.1h3.1V21.8z M55.9,21.8h-3.1V6.1h3.1L55.9,21.8z M64.3,12l2.9-5.1H71l-4.6,7.4
	l4.7,7.5h-3.8l-3-5.2l-3,5.2h-3.8l4.7-7.5l-4.6-7.4h3.7L64.3,12z"/>
<path class="st0" d="M8.7,13.4L0.9,1.3v25l7.9-11.8l7.9,11.8v-25L8.7,13.4z M1.7,23.7v-9.3h6.2L1.7,23.7z M1.7,13.5V3.9l6.2,9.6H1.7
	z M15.8,3.9v9.6H9.6L15.8,3.9z M15.8,23.7l-6.2-9.3h6.2V23.7z"/>
</svg>
